<svg width="20" height="20" viewBox="0 0 20 20" fill="none" xmlns="http://www.w3.org/2000/svg">
<g id="telegram">
<path id="Vector" fill-rule="evenodd" clip-rule="evenodd" d="M1.37499 9.635C6.74332 7.29583 10.3233 5.75417 12.115 5.00917C17.2292 2.88167 18.2917 2.5125 18.985 2.5C19.1367 2.49667 19.4775 2.53417 19.6983 2.71333C19.8842 2.865 19.9358 3.06917 19.96 3.2125C19.985 3.35583 20.015 3.68167 19.9908 3.9375C19.7142 6.84917 18.515 13.9158 17.905 17.1775C17.6467 18.5575 17.1383 19.02 16.6467 19.0658C15.5767 19.1642 14.7642 18.3592 13.7283 17.68C12.1075 16.6175 11.1925 15.9558 9.61915 14.9192C7.80082 13.7208 8.97916 13.0625 10.0158 11.9858C10.2867 11.7042 14.9992 7.41833 15.09 7.02917C15.1017 6.98083 15.1117 6.8 15.0042 6.70417C14.8958 6.60833 14.7375 6.64083 14.6233 6.66667C14.46 6.70417 11.8708 8.41583 6.85499 11.8017C6.11999 12.3058 5.45415 12.5517 4.85749 12.5392C4.19999 12.525 2.93499 12.1675 1.99499 11.8617C0.841655 11.4867 -0.0750116 11.2883 0.00498842 10.6517C0.0466551 10.32 0.503322 9.98083 1.37499 9.635Z" fill="#5C5F6A"/>
</g>
</svg>
