<svg width="20" height="20" viewBox="0 0 20 20" fill="none" xmlns="http://www.w3.org/2000/svg">
<g id="whatsapp" clip-path="url(#clip0_3082_2343)">
<path id="Vector" d="M5.48244 6.7675C5.65661 6.215 6.13077 5.55333 6.47411 5.38417C6.62661 5.30917 6.73994 5.2925 7.10994 5.2925C7.54494 5.2925 7.56661 5.29667 7.67994 5.40917C7.75327 5.48833 7.95327 5.91417 8.24077 6.6025C8.48411 7.19417 8.68494 7.69833 8.68494 7.725C8.68494 7.84667 8.44077 8.23333 8.16244 8.56C7.97077 8.7825 7.85827 8.95167 7.85827 9.0125C7.85827 9.06917 7.99744 9.33 8.17161 9.5875C8.59327 10.2183 9.37161 11.0008 9.97744 11.4017C10.4508 11.715 11.2958 12.1242 11.4649 12.1242C11.5916 12.1242 11.8224 11.8975 12.2916 11.3058C12.4833 11.0667 12.6533 10.8933 12.7183 10.88C12.7749 10.8625 12.9141 10.8842 13.0266 10.9275C13.3533 11.0542 15.0024 11.8583 15.0899 11.9367C15.2591 12.0933 15.1208 12.99 14.8674 13.355C14.4808 13.9217 13.3758 14.4042 12.6483 14.33C12.1183 14.2733 10.8649 13.86 10.0508 13.4725C9.00661 12.9725 7.90577 12.0583 7.01411 10.9408C6.50494 10.305 5.99161 9.53083 5.76994 9.06917C5.46994 8.44333 5.36077 7.96 5.39077 7.4025C5.40411 7.16333 5.44744 6.87667 5.48244 6.7675Z" fill="#5C5F6A"/>
<path id="Vector_2" fill-rule="evenodd" clip-rule="evenodd" d="M0.505133 7.91657C1.31847 3.7424 4.6468 0.633232 8.9243 0.0498989C9.5118 -0.0334345 11.161 -0.0067678 11.731 0.0882322C12.3268 0.193232 13.1143 0.397399 13.5976 0.579899C16.791 1.76823 19.1501 4.51323 19.8193 7.81573C20.111 9.25657 20.046 10.9449 19.6501 12.3632C18.706 15.7216 15.9643 18.3674 12.5576 19.2116C10.3385 19.7599 8.00597 19.5199 5.90513 18.5366L5.39097 18.2932L2.70263 19.1507C1.22763 19.6207 0.00846667 19.9949 0.000133333 19.9857C-0.0082 19.9774 0.375133 18.8066 0.857633 17.3924L1.73263 14.8124L1.3793 14.1124C0.400133 12.1407 0.100133 10.0082 0.5043 7.9149L0.505133 7.91657ZM18.1485 7.57657C17.2918 4.44323 14.5676 2.0549 11.361 1.6199C9.6118 1.3849 7.96263 1.65073 6.4443 2.41657C2.76347 4.27823 1.0093 8.53407 2.33597 12.3807C2.50597 12.8724 2.96263 13.7991 3.24597 14.2249L3.4718 14.5649L2.96763 16.0441C2.79237 16.5465 2.62402 17.0512 2.46263 17.5582C2.46263 17.5799 3.16263 17.3716 4.01597 17.1016C4.54208 16.9307 5.06988 16.7652 5.5993 16.6049C5.61763 16.6049 5.7868 16.6966 5.9743 16.8049C7.99763 18.0107 10.521 18.2716 12.7968 17.5149C14.1089 17.0784 15.2906 16.32 16.2339 15.3089C17.1773 14.2979 17.8521 13.0665 18.1968 11.7274C18.531 10.3621 18.5144 8.93451 18.1485 7.5774V7.57657Z" fill="#5C5F6A"/>
</g>
<defs>
<clipPath id="clip0_3082_2343">
<rect width="20" height="20" fill="white"/>
</clipPath>
</defs>
</svg>
